<svg id="visual" viewBox="0 0 900 600" width="900" height="600" xmlns="http://www.w3.org/2000/svg" xmlns:xlink="http://www.w3.org/1999/xlink" version="1.1"><rect x="0" y="0" width="900" height="600" fill="#367211"></rect><defs><linearGradient id="grad1_0" x1="33.3%" y1="0%" x2="100%" y2="100%"><stop offset="20%" stop-color="#d1b000" stop-opacity="1"></stop><stop offset="80%" stop-color="#d1b000" stop-opacity="1"></stop></linearGradient></defs><defs><linearGradient id="grad1_1" x1="33.3%" y1="0%" x2="100%" y2="100%"><stop offset="20%" stop-color="#d1b000" stop-opacity="1"></stop><stop offset="80%" stop-color="#b9a800" stop-opacity="1"></stop></linearGradient></defs><defs><linearGradient id="grad1_2" x1="33.3%" y1="0%" x2="100%" y2="100%"><stop offset="20%" stop-color="#a1a000" stop-opacity="1"></stop><stop offset="80%" stop-color="#b9a800" stop-opacity="1"></stop></linearGradient></defs><defs><linearGradient id="grad1_3" x1="33.3%" y1="0%" x2="100%" y2="100%"><stop offset="20%" stop-color="#a1a000" stop-opacity="1"></stop><stop offset="80%" stop-color="#8a9800" stop-opacity="1"></stop></linearGradient></defs><defs><linearGradient id="grad1_4" x1="33.3%" y1="0%" x2="100%" y2="100%"><stop offset="20%" stop-color="#758f00" stop-opacity="1"></stop><stop offset="80%" stop-color="#8a9800" stop-opacity="1"></stop></linearGradient></defs><defs><linearGradient id="grad1_5" x1="33.3%" y1="0%" x2="100%" y2="100%"><stop offset="20%" stop-color="#758f00" stop-opacity="1"></stop><stop offset="80%" stop-color="#5f8605" stop-opacity="1"></stop></linearGradient></defs><defs><linearGradient id="grad1_6" x1="33.3%" y1="0%" x2="100%" y2="100%"><stop offset="20%" stop-color="#4b7c0c" stop-opacity="1"></stop><stop offset="80%" stop-color="#5f8605" stop-opacity="1"></stop></linearGradient></defs><defs><linearGradient id="grad1_7" x1="33.3%" y1="0%" x2="100%" y2="100%"><stop offset="20%" stop-color="#4b7c0c" stop-opacity="1"></stop><stop offset="80%" stop-color="#367211" stop-opacity="1"></stop></linearGradient></defs><defs><linearGradient id="grad2_0" x1="0%" y1="0%" x2="66.7%" y2="100%"><stop offset="20%" stop-color="#d1b000" stop-opacity="1"></stop><stop offset="80%" stop-color="#d1b000" stop-opacity="1"></stop></linearGradient></defs><defs><linearGradient id="grad2_1" x1="0%" y1="0%" x2="66.7%" y2="100%"><stop offset="20%" stop-color="#b9a800" stop-opacity="1"></stop><stop offset="80%" stop-color="#d1b000" stop-opacity="1"></stop></linearGradient></defs><defs><linearGradient id="grad2_2" x1="0%" y1="0%" x2="66.7%" y2="100%"><stop offset="20%" stop-color="#b9a800" stop-opacity="1"></stop><stop offset="80%" stop-color="#a1a000" stop-opacity="1"></stop></linearGradient></defs><defs><linearGradient id="grad2_3" x1="0%" y1="0%" x2="66.7%" y2="100%"><stop offset="20%" stop-color="#8a9800" stop-opacity="1"></stop><stop offset="80%" stop-color="#a1a000" stop-opacity="1"></stop></linearGradient></defs><defs><linearGradient id="grad2_4" x1="0%" y1="0%" x2="66.7%" y2="100%"><stop offset="20%" stop-color="#8a9800" stop-opacity="1"></stop><stop offset="80%" stop-color="#758f00" stop-opacity="1"></stop></linearGradient></defs><defs><linearGradient id="grad2_5" x1="0%" y1="0%" x2="66.7%" y2="100%"><stop offset="20%" stop-color="#5f8605" stop-opacity="1"></stop><stop offset="80%" stop-color="#758f00" stop-opacity="1"></stop></linearGradient></defs><defs><linearGradient id="grad2_6" x1="0%" y1="0%" x2="66.7%" y2="100%"><stop offset="20%" stop-color="#5f8605" stop-opacity="1"></stop><stop offset="80%" stop-color="#4b7c0c" stop-opacity="1"></stop></linearGradient></defs><defs><linearGradient id="grad2_7" x1="0%" y1="0%" x2="66.7%" y2="100%"><stop offset="20%" stop-color="#367211" stop-opacity="1"></stop><stop offset="80%" stop-color="#4b7c0c" stop-opacity="1"></stop></linearGradient></defs><g transform="translate(900, 0)"><path d="M0 405.6C-68.3 391.1 -136.6 376.7 -199 344.7C-261.4 312.7 -317.8 263.2 -351.3 202.8C-384.7 142.4 -395.2 71.2 -405.6 0L0 0Z" fill="#40770f"></path><path d="M0 354.9C-59.8 342.3 -119.5 329.6 -174.1 301.6C-228.7 273.6 -278.1 230.3 -307.4 177.5C-336.6 124.6 -345.8 62.3 -354.9 0L0 0Z" fill="#558109"></path><path d="M0 304.2C-51.2 293.4 -102.5 282.5 -149.2 258.5C-196 234.5 -238.4 197.4 -263.5 152.1C-288.5 106.8 -296.4 53.4 -304.2 0L0 0Z" fill="#6a8a02"></path><path d="M0 253.5C-42.7 244.5 -85.4 235.4 -124.4 215.4C-163.4 195.4 -198.6 164.5 -219.6 126.8C-240.5 89 -247 44.5 -253.5 0L0 0Z" fill="#7f9300"></path><path d="M0 202.8C-34.2 195.6 -68.3 188.3 -99.5 172.3C-130.7 156.3 -158.9 131.6 -175.6 101.4C-192.4 71.2 -197.6 35.6 -202.8 0L0 0Z" fill="#969c00"></path><path d="M0 152.1C-25.6 146.7 -51.2 141.3 -74.6 129.3C-98 117.3 -119.2 98.7 -131.7 76.1C-144.3 53.4 -148.2 26.7 -152.1 0L0 0Z" fill="#ada400"></path><path d="M0 101.4C-17.1 97.8 -34.2 94.2 -49.7 86.2C-65.3 78.2 -79.5 65.8 -87.8 50.7C-96.2 35.6 -98.8 17.8 -101.4 0L0 0Z" fill="#c5ac00"></path><path d="M0 50.7C-8.5 48.9 -17.1 47.1 -24.9 43.1C-32.7 39.1 -39.7 32.9 -43.9 25.4C-48.1 17.8 -49.4 8.9 -50.7 0L0 0Z" fill="#d1b000"></path></g><g transform="translate(0, 600)"><path d="M0 -405.6C71.2 -395.2 142.4 -384.7 202.8 -351.3C263.2 -317.8 312.7 -261.4 344.7 -199C376.7 -136.6 391.1 -68.3 405.6 0L0 0Z" fill="#40770f"></path><path d="M0 -354.9C62.3 -345.8 124.6 -336.6 177.5 -307.4C230.3 -278.1 273.6 -228.7 301.6 -174.1C329.6 -119.5 342.3 -59.8 354.9 0L0 0Z" fill="#558109"></path><path d="M0 -304.2C53.4 -296.4 106.8 -288.5 152.1 -263.5C197.4 -238.4 234.5 -196 258.5 -149.3C282.5 -102.5 293.4 -51.2 304.2 0L0 0Z" fill="#6a8a02"></path><path d="M0 -253.5C44.5 -247 89 -240.5 126.8 -219.6C164.5 -198.6 195.4 -163.4 215.4 -124.4C235.4 -85.4 244.5 -42.7 253.5 0L0 0Z" fill="#7f9300"></path><path d="M0 -202.8C35.6 -197.6 71.2 -192.4 101.4 -175.6C131.6 -158.9 156.3 -130.7 172.3 -99.5C188.3 -68.3 195.6 -34.2 202.8 0L0 0Z" fill="#969c00"></path><path d="M0 -152.1C26.7 -148.2 53.4 -144.3 76.1 -131.7C98.7 -119.2 117.3 -98 129.3 -74.6C141.3 -51.2 146.7 -25.6 152.1 0L0 0Z" fill="#ada400"></path><path d="M0 -101.4C17.8 -98.8 35.6 -96.2 50.7 -87.8C65.8 -79.5 78.2 -65.3 86.2 -49.8C94.2 -34.2 97.8 -17.1 101.4 0L0 0Z" fill="#c5ac00"></path><path d="M0 -50.7C8.9 -49.4 17.8 -48.1 25.4 -43.9C32.9 -39.7 39.1 -32.7 43.1 -24.9C47.1 -17.1 48.9 -8.5 50.7 0L0 0Z" fill="#d1b000"></path></g></svg>