<svg id="visual" viewBox="0 0 900 600" width="900" height="600" xmlns="http://www.w3.org/2000/svg" xmlns:xlink="http://www.w3.org/1999/xlink" version="1.1"><rect x="0" y="0" width="900" height="600" fill="#275909"></rect><defs><linearGradient id="grad1_0" x1="33.3%" y1="0%" x2="100%" y2="100%"><stop offset="20%" stop-color="#000000" stop-opacity="1"></stop><stop offset="80%" stop-color="#000000" stop-opacity="1"></stop></linearGradient></defs><defs><linearGradient id="grad1_1" x1="33.3%" y1="0%" x2="100%" y2="100%"><stop offset="20%" stop-color="#000000" stop-opacity="1"></stop><stop offset="80%" stop-color="#001c00" stop-opacity="1"></stop></linearGradient></defs><defs><linearGradient id="grad1_2" x1="33.3%" y1="0%" x2="100%" y2="100%"><stop offset="20%" stop-color="#002300" stop-opacity="1"></stop><stop offset="80%" stop-color="#001c00" stop-opacity="1"></stop></linearGradient></defs><defs><linearGradient id="grad1_3" x1="33.3%" y1="0%" x2="100%" y2="100%"><stop offset="20%" stop-color="#002300" stop-opacity="1"></stop><stop offset="80%" stop-color="#022c00" stop-opacity="1"></stop></linearGradient></defs><defs><linearGradient id="grad1_4" x1="33.3%" y1="0%" x2="100%" y2="100%"><stop offset="20%" stop-color="#043700" stop-opacity="1"></stop><stop offset="80%" stop-color="#022c00" stop-opacity="1"></stop></linearGradient></defs><defs><linearGradient id="grad1_5" x1="33.3%" y1="0%" x2="100%" y2="100%"><stop offset="20%" stop-color="#043700" stop-opacity="1"></stop><stop offset="80%" stop-color="#0d4200" stop-opacity="1"></stop></linearGradient></defs><defs><linearGradient id="grad1_6" x1="33.3%" y1="0%" x2="100%" y2="100%"><stop offset="20%" stop-color="#1a4e00" stop-opacity="1"></stop><stop offset="80%" stop-color="#0d4200" stop-opacity="1"></stop></linearGradient></defs><defs><linearGradient id="grad1_7" x1="33.3%" y1="0%" x2="100%" y2="100%"><stop offset="20%" stop-color="#1a4e00" stop-opacity="1"></stop><stop offset="80%" stop-color="#275909" stop-opacity="1"></stop></linearGradient></defs><defs><linearGradient id="grad2_0" x1="0%" y1="0%" x2="66.7%" y2="100%"><stop offset="20%" stop-color="#000000" stop-opacity="1"></stop><stop offset="80%" stop-color="#000000" stop-opacity="1"></stop></linearGradient></defs><defs><linearGradient id="grad2_1" x1="0%" y1="0%" x2="66.7%" y2="100%"><stop offset="20%" stop-color="#001c00" stop-opacity="1"></stop><stop offset="80%" stop-color="#000000" stop-opacity="1"></stop></linearGradient></defs><defs><linearGradient id="grad2_2" x1="0%" y1="0%" x2="66.7%" y2="100%"><stop offset="20%" stop-color="#001c00" stop-opacity="1"></stop><stop offset="80%" stop-color="#002300" stop-opacity="1"></stop></linearGradient></defs><defs><linearGradient id="grad2_3" x1="0%" y1="0%" x2="66.7%" y2="100%"><stop offset="20%" stop-color="#022c00" stop-opacity="1"></stop><stop offset="80%" stop-color="#002300" stop-opacity="1"></stop></linearGradient></defs><defs><linearGradient id="grad2_4" x1="0%" y1="0%" x2="66.7%" y2="100%"><stop offset="20%" stop-color="#022c00" stop-opacity="1"></stop><stop offset="80%" stop-color="#043700" stop-opacity="1"></stop></linearGradient></defs><defs><linearGradient id="grad2_5" x1="0%" y1="0%" x2="66.7%" y2="100%"><stop offset="20%" stop-color="#0d4200" stop-opacity="1"></stop><stop offset="80%" stop-color="#043700" stop-opacity="1"></stop></linearGradient></defs><defs><linearGradient id="grad2_6" x1="0%" y1="0%" x2="66.7%" y2="100%"><stop offset="20%" stop-color="#0d4200" stop-opacity="1"></stop><stop offset="80%" stop-color="#1a4e00" stop-opacity="1"></stop></linearGradient></defs><defs><linearGradient id="grad2_7" x1="0%" y1="0%" x2="66.7%" y2="100%"><stop offset="20%" stop-color="#275909" stop-opacity="1"></stop><stop offset="80%" stop-color="#1a4e00" stop-opacity="1"></stop></linearGradient></defs><g transform="translate(900, 0)"><path d="M0 378.6C-14.6 372 -29.1 365.4 -44.1 363.3C-59.1 361.3 -74.6 363.8 -89 361.2C-103.5 358.6 -117 350.8 -130.5 344.1C-144 337.4 -157.5 331.8 -170.6 325C-183.6 318.1 -196.1 310.1 -207.9 301.2C-219.7 292.3 -230.8 282.5 -240.7 271.7C-250.6 260.9 -259.3 249.2 -268.7 238.1C-278.1 227 -288.2 216.5 -297.1 205.1C-306 193.6 -313.9 181.1 -320.5 168.2C-327.2 155.4 -332.7 142.1 -341.3 129.4C-349.9 116.7 -361.7 104.6 -367.6 90.6C-373.5 76.6 -373.4 60.8 -374.3 45.4C-375.1 30 -376.8 15 -378.6 0L0 0Z" fill="#215303"></path><path d="M0 331.3C-12.7 325.5 -25.5 319.7 -38.6 317.9C-51.7 316.1 -65.2 318.3 -77.9 316C-90.6 313.7 -102.4 306.9 -114.2 301.1C-126 295.2 -137.8 290.3 -149.2 284.3C-160.6 278.4 -171.6 271.4 -181.9 263.6C-192.3 255.8 -202 247.2 -210.6 237.7C-219.3 228.3 -226.9 218 -235.1 208.3C-243.3 198.6 -252.1 189.5 -260 179.4C-267.8 169.4 -274.6 158.5 -280.5 147.2C-286.3 135.9 -291.1 124.4 -298.6 113.3C-306.2 102.1 -316.5 91.5 -321.6 79.3C-326.8 67 -326.7 53.2 -327.5 39.8C-328.2 26.3 -329.7 13.1 -331.3 0L0 0Z" fill="#144800"></path><path d="M0 283.9C-10.9 279 -21.8 274 -33.1 272.5C-44.3 271 -55.9 272.9 -66.8 270.9C-77.6 268.9 -87.7 263.1 -97.9 258.1C-108 253 -118.1 248.8 -127.9 243.7C-137.7 238.6 -147.1 232.6 -155.9 225.9C-164.8 219.2 -173.1 211.9 -180.5 203.8C-188 195.7 -194.5 186.9 -201.5 178.5C-208.6 170.2 -216.1 162.4 -222.8 153.8C-229.5 145.2 -235.4 135.8 -240.4 126.2C-245.4 116.5 -249.5 106.6 -256 97.1C-262.4 87.6 -271.3 78.4 -275.7 68C-280.1 57.5 -280.1 45.6 -280.7 34.1C-281.3 22.5 -282.6 11.3 -283.9 0L0 0Z" fill="#073d00"></path><path d="M0 236.6C-9.1 232.5 -18.2 228.4 -27.6 227.1C-36.9 225.8 -46.6 227.4 -55.6 225.7C-64.7 224.1 -73.1 219.2 -81.6 215.1C-90 210.9 -98.5 207.4 -106.6 203.1C-114.7 198.8 -122.6 193.8 -129.9 188.3C-137.3 182.7 -144.3 176.6 -150.4 169.8C-156.6 163.1 -162.1 155.7 -167.9 148.8C-173.8 141.9 -180.1 135.3 -185.7 128.2C-191.3 121 -196.2 113.2 -200.3 105.1C-204.5 97.1 -207.9 88.8 -213.3 80.9C-218.7 73 -226.1 65.4 -229.7 56.6C-233.4 47.9 -233.4 38 -233.9 28.4C-234.4 18.8 -235.5 9.4 -236.6 0L0 0Z" fill="#023200"></path><path d="M0 189.3C-7.3 186 -14.6 182.7 -22.1 181.7C-29.6 180.6 -37.3 181.9 -44.5 180.6C-51.7 179.3 -58.5 175.4 -65.2 172C-72 168.7 -78.8 165.9 -85.3 162.5C-91.8 159.1 -98.1 155.1 -104 150.6C-109.9 146.1 -115.4 141.2 -120.4 135.9C-125.3 130.5 -129.7 124.6 -134.4 119C-139 113.5 -144.1 108.3 -148.5 102.5C-153 96.8 -156.9 90.5 -160.3 84.1C-163.6 77.7 -166.3 71.1 -170.6 64.7C-175 58.4 -180.9 52.3 -183.8 45.3C-186.7 38.3 -186.7 30.4 -187.1 22.7C-187.5 15 -188.4 7.5 -189.3 0L0 0Z" fill="#002800"></path><path d="M0 142C-5.5 139.5 -10.9 137 -16.5 136.2C-22.2 135.5 -28 136.4 -33.4 135.4C-38.8 134.5 -43.9 131.5 -48.9 129C-54 126.5 -59.1 124.4 -64 121.9C-68.8 119.3 -73.5 116.3 -78 113C-82.4 109.6 -86.6 105.9 -90.3 101.9C-94 97.8 -97.2 93.4 -100.8 89.3C-104.3 85.1 -108.1 81.2 -111.4 76.9C-114.8 72.6 -117.7 67.9 -120.2 63.1C-122.7 58.3 -124.7 53.3 -128 48.5C-131.2 43.8 -135.6 39.2 -137.8 34C-140 28.7 -140 22.8 -140.3 17C-140.7 11.3 -141.3 5.6 -142 0L0 0Z" fill="#002000"></path><path d="M0 94.6C-3.6 93 -7.3 91.3 -11 90.8C-14.8 90.3 -18.6 91 -22.3 90.3C-25.9 89.6 -29.2 87.7 -32.6 86C-36 84.3 -39.4 82.9 -42.6 81.2C-45.9 79.5 -49 77.5 -52 75.3C-54.9 73.1 -57.7 70.6 -60.2 67.9C-62.7 65.2 -64.8 62.3 -67.2 59.5C-69.5 56.7 -72 54.1 -74.3 51.3C-76.5 48.4 -78.5 45.3 -80.1 42.1C-81.8 38.8 -83.2 35.5 -85.3 32.4C-87.5 29.2 -90.4 26.1 -91.9 22.7C-93.4 19.2 -93.4 15.2 -93.6 11.4C-93.8 7.5 -94.2 3.8 -94.6 0L0 0Z" fill="#001800"></path><path d="M0 47.3C-1.8 46.5 -3.6 45.7 -5.5 45.4C-7.4 45.2 -9.3 45.5 -11.1 45.1C-12.9 44.8 -14.6 43.8 -16.3 43C-18 42.2 -19.7 41.5 -21.3 40.6C-22.9 39.8 -24.5 38.8 -26 37.7C-27.5 36.5 -28.9 35.3 -30.1 34C-31.3 32.6 -32.4 31.1 -33.6 29.8C-34.8 28.4 -36 27.1 -37.1 25.6C-38.3 24.2 -39.2 22.6 -40.1 21C-40.9 19.4 -41.6 17.8 -42.7 16.2C-43.7 14.6 -45.2 13.1 -45.9 11.3C-46.7 9.6 -46.7 7.6 -46.8 5.7C-46.9 3.8 -47.1 1.9 -47.3 0L0 0Z" fill="#000000"></path></g><g transform="translate(0, 600)"><path d="M0 -378.6C14.4 -370.3 28.8 -362.1 43.6 -359.4C58.5 -356.6 73.9 -359.4 87.8 -356.3C101.8 -353.2 114.4 -344.2 129.1 -340.3C143.7 -336.4 160.5 -337.6 174.7 -332.9C189 -328.2 200.9 -317.6 211.9 -307C222.9 -296.3 233.2 -285.7 244.7 -276.2C256.2 -266.7 269 -258.4 280.7 -248.7C292.3 -238.9 302.8 -227.7 311.6 -215.1C320.3 -202.5 327.4 -188.5 330.3 -173.3C333.2 -158.2 331.8 -141.8 336.6 -127.7C341.4 -113.6 352.2 -101.8 358.3 -88.3C364.4 -74.8 365.7 -59.7 368.3 -44.7C370.9 -29.7 374.7 -14.9 378.6 0L0 0Z" fill="#215303"></path><path d="M0 -331.3C12.6 -324 25.2 -316.8 38.2 -314.4C51.2 -312.1 64.6 -314.5 76.9 -311.8C89.1 -309.1 100.1 -301.2 112.9 -297.8C125.8 -294.4 140.4 -295.4 152.9 -291.3C165.4 -287.2 175.7 -277.9 185.4 -268.6C195.1 -259.3 204 -250 214.1 -241.7C224.2 -233.4 235.4 -226.1 245.6 -217.6C255.8 -209 265 -199.2 272.6 -188.2C280.3 -177.2 286.5 -165 289 -151.7C291.5 -138.4 290.4 -124 294.5 -111.7C298.7 -99.4 308.2 -89 313.5 -77.3C318.8 -65.5 320 -52.3 322.3 -39.1C324.5 -26 327.9 -13 331.3 0L0 0Z" fill="#144800"></path><path d="M0 -283.9C10.8 -277.8 21.6 -271.6 32.7 -269.5C43.9 -267.5 55.4 -269.6 65.9 -267.3C76.4 -264.9 85.8 -258.2 96.8 -255.3C107.8 -252.3 120.3 -253.2 131.1 -249.7C141.8 -246.2 150.6 -238.2 158.9 -230.2C167.2 -222.3 174.9 -214.3 183.5 -207.2C192.2 -200 201.8 -193.8 210.5 -186.5C219.3 -179.2 227.1 -170.7 233.7 -161.3C240.2 -151.8 245.5 -141.4 247.7 -130C249.9 -118.6 248.9 -106.3 252.5 -95.7C256 -85.2 264.1 -76.3 268.7 -66.2C273.3 -56.1 274.3 -44.8 276.2 -33.5C278.2 -22.3 281.1 -11.1 283.9 0L0 0Z" fill="#073d00"></path><path d="M0 -236.6C9 -231.5 18 -226.3 27.3 -224.6C36.6 -222.9 46.2 -224.6 54.9 -222.7C63.6 -220.8 71.5 -215.2 80.7 -212.7C89.8 -210.3 100.3 -211 109.2 -208.1C118.1 -205.1 125.5 -198.5 132.4 -191.9C139.3 -185.2 145.7 -178.5 152.9 -172.6C160.1 -166.7 168.2 -161.5 175.4 -155.4C182.7 -149.3 189.3 -142.3 194.7 -134.4C200.2 -126.5 204.6 -117.8 206.4 -108.3C208.2 -98.9 207.4 -88.6 210.4 -79.8C213.4 -71 220.1 -63.6 223.9 -55.2C227.7 -46.8 228.6 -37.3 230.2 -27.9C231.8 -18.6 234.2 -9.3 236.6 0L0 0Z" fill="#023200"></path><path d="M0 -189.3C7.2 -185.2 14.4 -181 21.8 -179.7C29.3 -178.3 36.9 -179.7 43.9 -178.2C50.9 -176.6 57.2 -172.1 64.5 -170.2C71.9 -168.2 80.2 -168.8 87.4 -166.5C94.5 -164.1 100.4 -158.8 105.9 -153.5C111.5 -148.2 116.6 -142.8 122.3 -138.1C128.1 -133.4 134.5 -129.2 140.3 -124.3C146.2 -119.5 151.4 -113.8 155.8 -107.5C160.2 -101.2 163.7 -94.3 165.1 -86.7C166.6 -79.1 165.9 -70.9 168.3 -63.8C170.7 -56.8 176.1 -50.9 179.1 -44.2C182.2 -37.4 182.9 -29.9 184.1 -22.4C185.4 -14.9 187.4 -7.4 189.3 0L0 0Z" fill="#002800"></path><path d="M0 -142C5.4 -138.9 10.8 -135.8 16.4 -134.8C21.9 -133.7 27.7 -134.8 32.9 -133.6C38.2 -132.5 42.9 -129.1 48.4 -127.6C53.9 -126.2 60.2 -126.6 65.5 -124.8C70.9 -123.1 75.3 -119.1 79.5 -115.1C83.6 -111.1 87.4 -107.1 91.8 -103.6C96.1 -100 100.9 -96.9 105.3 -93.3C109.6 -89.6 113.6 -85.4 116.8 -80.6C120.1 -75.9 122.8 -70.7 123.9 -65C124.9 -59.3 124.4 -53.2 126.2 -47.9C128 -42.6 132.1 -38.2 134.4 -33.1C136.6 -28.1 137.1 -22.4 138.1 -16.8C139.1 -11.1 140.5 -5.6 142 0L0 0Z" fill="#002000"></path><path d="M0 -94.6C3.6 -92.6 7.2 -90.5 10.9 -89.8C14.6 -89.2 18.5 -89.9 22 -89.1C25.5 -88.3 28.6 -86.1 32.3 -85.1C35.9 -84.1 40.1 -84.4 43.7 -83.2C47.3 -82.1 50.2 -79.4 53 -76.7C55.7 -74.1 58.3 -71.4 61.2 -69.1C64.1 -66.7 67.3 -64.6 70.2 -62.2C73.1 -59.7 75.7 -56.9 77.9 -53.8C80.1 -50.6 81.8 -47.1 82.6 -43.3C83.3 -39.5 83 -35.4 84.2 -31.9C85.3 -28.4 88 -25.4 89.6 -22.1C91.1 -18.7 91.4 -14.9 92.1 -11.2C92.7 -7.4 93.7 -3.7 94.6 0L0 0Z" fill="#001800"></path><path d="M0 -47.3C1.8 -46.3 3.6 -45.3 5.5 -44.9C7.3 -44.6 9.2 -44.9 11 -44.5C12.7 -44.2 14.3 -43 16.1 -42.5C18 -42.1 20.1 -42.2 21.8 -41.6C23.6 -41 25.1 -39.7 26.5 -38.4C27.9 -37 29.1 -35.7 30.6 -34.5C32 -33.3 33.6 -32.3 35.1 -31.1C36.5 -29.9 37.9 -28.5 38.9 -26.9C40 -25.3 40.9 -23.6 41.3 -21.7C41.6 -19.8 41.5 -17.7 42.1 -16C42.7 -14.2 44 -12.7 44.8 -11C45.5 -9.4 45.7 -7.5 46 -5.6C46.4 -3.7 46.8 -1.9 47.3 0L0 0Z" fill="#000000"></path></g></svg>