<svg id="visual" viewBox="0 0 900 600" width="900" height="600" xmlns="http://www.w3.org/2000/svg" xmlns:xlink="http://www.w3.org/1999/xlink" version="1.1"><path d="M0 25L9.3 26C18.7 27 37.3 29 56.2 30C75 31 94 31 112.8 30C131.7 29 150.3 27 169 26C187.7 25 206.3 25 225 25C243.7 25 262.3 25 281.2 26C300 27 319 29 337.8 29C356.7 29 375.3 27 394 26C412.7 25 431.3 25 450 26C468.7 27 487.3 29 506.2 30C525 31 544 31 562.8 30C581.7 29 600.3 27 619 27C637.7 27 656.3 29 675 30C693.7 31 712.3 31 731.2 31C750 31 769 31 787.8 30C806.7 29 825.3 27 844 26C862.7 25 881.3 25 890.7 25L900 25L900 0L890.7 0C881.3 0 862.7 0 844 0C825.3 0 806.7 0 787.8 0C769 0 750 0 731.2 0C712.3 0 693.7 0 675 0C656.3 0 637.7 0 619 0C600.3 0 581.7 0 562.8 0C544 0 525 0 506.2 0C487.3 0 468.7 0 450 0C431.3 0 412.7 0 394 0C375.3 0 356.7 0 337.8 0C319 0 300 0 281.2 0C262.3 0 243.7 0 225 0C206.3 0 187.7 0 169 0C150.3 0 131.7 0 112.8 0C94 0 75 0 56.2 0C37.3 0 18.7 0 9.3 0L0 0Z" fill="#002000"></path><path d="M0 43L9.3 44C18.7 45 37.3 47 56.2 49C75 51 94 53 112.8 52C131.7 51 150.3 47 169 45C187.7 43 206.3 43 225 44C243.7 45 262.3 47 281.2 48C300 49 319 49 337.8 48C356.7 47 375.3 45 394 45C412.7 45 431.3 47 450 49C468.7 51 487.3 53 506.2 53C525 53 544 51 562.8 50C581.7 49 600.3 49 619 49C637.7 49 656.3 49 675 50C693.7 51 712.3 53 731.2 54C750 55 769 55 787.8 53C806.7 51 825.3 47 844 46C862.7 45 881.3 47 890.7 48L900 49L900 23L890.7 23C881.3 23 862.7 23 844 24C825.3 25 806.7 27 787.8 28C769 29 750 29 731.2 29C712.3 29 693.7 29 675 28C656.3 27 637.7 25 619 25C600.3 25 581.7 27 562.8 28C544 29 525 29 506.2 28C487.3 27 468.7 25 450 24C431.3 23 412.7 23 394 24C375.3 25 356.7 27 337.8 27C319 27 300 25 281.2 24C262.3 23 243.7 23 225 23C206.3 23 187.7 23 169 24C150.3 25 131.7 27 112.8 28C94 29 75 29 56.2 28C37.3 27 18.7 25 9.3 24L0 23Z" fill="#06310b"></path><path d="M0 79L9.3 79C18.7 79 37.3 79 56.2 80C75 81 94 83 112.8 82C131.7 81 150.3 77 169 76C187.7 75 206.3 77 225 77C243.7 77 262.3 75 281.2 74C300 73 319 73 337.8 73C356.7 73 375.3 73 394 75C412.7 77 431.3 81 450 84C468.7 87 487.3 89 506.2 89C525 89 544 87 562.8 85C581.7 83 600.3 81 619 80C637.7 79 656.3 79 675 80C693.7 81 712.3 83 731.2 83C750 83 769 81 787.8 78C806.7 75 825.3 71 844 70C862.7 69 881.3 71 890.7 72L900 73L900 47L890.7 46C881.3 45 862.7 43 844 44C825.3 45 806.7 49 787.8 51C769 53 750 53 731.2 52C712.3 51 693.7 49 675 48C656.3 47 637.7 47 619 47C600.3 47 581.7 47 562.8 48C544 49 525 51 506.2 51C487.3 51 468.7 49 450 47C431.3 45 412.7 43 394 43C375.3 43 356.7 45 337.8 46C319 47 300 47 281.2 46C262.3 45 243.7 43 225 42C206.3 41 187.7 41 169 43C150.3 45 131.7 49 112.8 50C94 51 75 49 56.2 47C37.3 45 18.7 43 9.3 42L0 41Z" fill="#10430f"></path><path d="M0 163L9.3 163C18.7 163 37.3 163 56.2 160C75 157 94 151 112.8 150C131.7 149 150.3 153 169 155C187.7 157 206.3 157 225 155C243.7 153 262.3 149 281.2 147C300 145 319 145 337.8 146C356.7 147 375.3 149 394 153C412.7 157 431.3 163 450 166C468.7 169 487.3 169 506.2 165C525 161 544 153 562.8 149C581.7 145 600.3 145 619 148C637.7 151 656.3 157 675 158C693.7 159 712.3 155 731.2 154C750 153 769 155 787.8 153C806.7 151 825.3 145 844 143C862.7 141 881.3 143 890.7 144L900 145L900 71L890.7 70C881.3 69 862.7 67 844 68C825.3 69 806.7 73 787.8 76C769 79 750 81 731.2 81C712.3 81 693.7 79 675 78C656.3 77 637.7 77 619 78C600.3 79 581.7 81 562.8 83C544 85 525 87 506.2 87C487.3 87 468.7 85 450 82C431.3 79 412.7 75 394 73C375.3 71 356.7 71 337.8 71C319 71 300 71 281.2 72C262.3 73 243.7 75 225 75C206.3 75 187.7 73 169 74C150.3 75 131.7 79 112.8 80C94 81 75 79 56.2 78C37.3 77 18.7 77 9.3 77L0 77Z" fill="#1f5612"></path><path d="M0 193L9.3 193C18.7 193 37.3 193 56.2 191C75 189 94 185 112.8 187C131.7 189 150.3 197 169 200C187.7 203 206.3 201 225 197C243.7 193 262.3 187 281.2 185C300 183 319 185 337.8 186C356.7 187 375.3 187 394 191C412.7 195 431.3 203 450 206C468.7 209 487.3 207 506.2 203C525 199 544 193 562.8 190C581.7 187 600.3 187 619 190C637.7 193 656.3 199 675 198C693.7 197 712.3 189 731.2 187C750 185 769 189 787.8 188C806.7 187 825.3 181 844 178C862.7 175 881.3 175 890.7 175L900 175L900 143L890.7 142C881.3 141 862.7 139 844 141C825.3 143 806.7 149 787.8 151C769 153 750 151 731.2 152C712.3 153 693.7 157 675 156C656.3 155 637.7 149 619 146C600.3 143 581.7 143 562.8 147C544 151 525 159 506.2 163C487.3 167 468.7 167 450 164C431.3 161 412.7 155 394 151C375.3 147 356.7 145 337.8 144C319 143 300 143 281.2 145C262.3 147 243.7 151 225 153C206.3 155 187.7 155 169 153C150.3 151 131.7 147 112.8 148C94 149 75 155 56.2 158C37.3 161 18.7 161 9.3 161L0 161Z" fill="#2f6a12"></path><path d="M0 223L9.3 223C18.7 223 37.3 223 56.2 222C75 221 94 219 112.8 221C131.7 223 150.3 229 169 233C187.7 237 206.3 239 225 237C243.7 235 262.3 229 281.2 226C300 223 319 223 337.8 224C356.7 225 375.3 227 394 230C412.7 233 431.3 237 450 239C468.7 241 487.3 241 506.2 237C525 233 544 225 562.8 222C581.7 219 600.3 221 619 224C637.7 227 656.3 231 675 230C693.7 229 712.3 223 731.2 222C750 221 769 225 787.8 223C806.7 221 825.3 213 844 209C862.7 205 881.3 205 890.7 205L900 205L900 173L890.7 173C881.3 173 862.7 173 844 176C825.3 179 806.7 185 787.8 186C769 187 750 183 731.2 185C712.3 187 693.7 195 675 196C656.3 197 637.7 191 619 188C600.3 185 581.7 185 562.8 188C544 191 525 197 506.2 201C487.3 205 468.7 207 450 204C431.3 201 412.7 193 394 189C375.3 185 356.7 185 337.8 184C319 183 300 181 281.2 183C262.3 185 243.7 191 225 195C206.3 199 187.7 201 169 198C150.3 195 131.7 187 112.8 185C94 183 75 187 56.2 189C37.3 191 18.7 191 9.3 191L0 191Z" fill="#367211"></path><path d="M0 265L9.3 264C18.7 263 37.3 261 56.2 259C75 257 94 255 112.8 257C131.7 259 150.3 265 169 270C187.7 275 206.3 279 225 277C243.7 275 262.3 267 281.2 266C300 265 319 271 337.8 274C356.7 277 375.3 277 394 280C412.7 283 431.3 289 450 289C468.7 289 487.3 283 506.2 276C525 269 544 261 562.8 260C581.7 259 600.3 265 619 269C637.7 273 656.3 275 675 272C693.7 269 712.3 261 731.2 261C750 261 769 269 787.8 268C806.7 267 825.3 257 844 253C862.7 249 881.3 251 890.7 252L900 253L900 203L890.7 203C881.3 203 862.7 203 844 207C825.3 211 806.7 219 787.8 221C769 223 750 219 731.2 220C712.3 221 693.7 227 675 228C656.3 229 637.7 225 619 222C600.3 219 581.7 217 562.8 220C544 223 525 231 506.2 235C487.3 239 468.7 239 450 237C431.3 235 412.7 231 394 228C375.3 225 356.7 223 337.8 222C319 221 300 221 281.2 224C262.3 227 243.7 233 225 235C206.3 237 187.7 235 169 231C150.3 227 131.7 221 112.8 219C94 217 75 219 56.2 220C37.3 221 18.7 221 9.3 221L0 221Z" fill="#367211"></path><path d="M0 361L9.3 367C18.7 373 37.3 385 56.2 388C75 391 94 385 112.8 385C131.7 385 150.3 391 169 393C187.7 395 206.3 393 225 393C243.7 393 262.3 395 281.2 393C300 391 319 385 337.8 379C356.7 373 375.3 367 394 369C412.7 371 431.3 381 450 386C468.7 391 487.3 391 506.2 391C525 391 544 391 562.8 389C581.7 387 600.3 383 619 378C637.7 373 656.3 367 675 363C693.7 359 712.3 357 731.2 363C750 369 769 383 787.8 390C806.7 397 825.3 397 844 393C862.7 389 881.3 381 890.7 377L900 373L900 251L890.7 250C881.3 249 862.7 247 844 251C825.3 255 806.7 265 787.8 266C769 267 750 259 731.2 259C712.3 259 693.7 267 675 270C656.3 273 637.7 271 619 267C600.3 263 581.7 257 562.8 258C544 259 525 267 506.2 274C487.3 281 468.7 287 450 287C431.3 287 412.7 281 394 278C375.3 275 356.7 275 337.8 272C319 269 300 263 281.2 264C262.3 265 243.7 273 225 275C206.3 277 187.7 273 169 268C150.3 263 131.7 257 112.8 255C94 253 75 255 56.2 257C37.3 259 18.7 261 9.3 262L0 263Z" fill="#2f6a12"></path><path d="M0 391L9.3 397C18.7 403 37.3 415 56.2 417C75 419 94 411 112.8 410C131.7 409 150.3 415 169 417C187.7 419 206.3 417 225 417C243.7 417 262.3 419 281.2 417C300 415 319 409 337.8 403C356.7 397 375.3 391 394 393C412.7 395 431.3 405 450 410C468.7 415 487.3 415 506.2 415C525 415 544 415 562.8 414C581.7 413 600.3 411 619 406C637.7 401 656.3 393 675 389C693.7 385 712.3 385 731.2 391C750 397 769 409 787.8 415C806.7 421 825.3 421 844 418C862.7 415 881.3 409 890.7 406L900 403L900 371L890.7 375C881.3 379 862.7 387 844 391C825.3 395 806.7 395 787.8 388C769 381 750 367 731.2 361C712.3 355 693.7 357 675 361C656.3 365 637.7 371 619 376C600.3 381 581.7 385 562.8 387C544 389 525 389 506.2 389C487.3 389 468.7 389 450 384C431.3 379 412.7 369 394 367C375.3 365 356.7 371 337.8 377C319 383 300 389 281.2 391C262.3 393 243.7 391 225 391C206.3 391 187.7 393 169 391C150.3 389 131.7 383 112.8 383C94 383 75 389 56.2 386C37.3 383 18.7 371 9.3 365L0 359Z" fill="#1f5612"></path><path d="M0 529L9.3 529C18.7 529 37.3 529 56.2 530C75 531 94 533 112.8 533C131.7 533 150.3 531 169 532C187.7 533 206.3 537 225 536C243.7 535 262.3 529 281.2 527C300 525 319 527 337.8 527C356.7 527 375.3 525 394 527C412.7 529 431.3 535 450 534C468.7 533 487.3 525 506.2 524C525 523 544 529 562.8 529C581.7 529 600.3 523 619 520C637.7 517 656.3 517 675 520C693.7 523 712.3 529 731.2 530C750 531 769 527 787.8 527C806.7 527 825.3 531 844 530C862.7 529 881.3 523 890.7 520L900 517L900 401L890.7 404C881.3 407 862.7 413 844 416C825.3 419 806.7 419 787.8 413C769 407 750 395 731.2 389C712.3 383 693.7 383 675 387C656.3 391 637.7 399 619 404C600.3 409 581.7 411 562.8 412C544 413 525 413 506.2 413C487.3 413 468.7 413 450 408C431.3 403 412.7 393 394 391C375.3 389 356.7 395 337.8 401C319 407 300 413 281.2 415C262.3 417 243.7 415 225 415C206.3 415 187.7 417 169 415C150.3 413 131.7 407 112.8 408C94 409 75 417 56.2 415C37.3 413 18.7 401 9.3 395L0 389Z" fill="#10430f"></path><path d="M0 547L9.3 547C18.7 547 37.3 547 56.2 548C75 549 94 551 112.8 552C131.7 553 150.3 553 169 554C187.7 555 206.3 557 225 556C243.7 555 262.3 551 281.2 550C300 549 319 551 337.8 551C356.7 551 375.3 549 394 550C412.7 551 431.3 555 450 554C468.7 553 487.3 547 506.2 546C525 545 544 549 562.8 549C581.7 549 600.3 545 619 542C637.7 539 656.3 537 675 539C693.7 541 712.3 547 731.2 549C750 551 769 549 787.8 549C806.7 549 825.3 551 844 550C862.7 549 881.3 545 890.7 543L900 541L900 515L890.7 518C881.3 521 862.7 527 844 528C825.3 529 806.7 525 787.8 525C769 525 750 529 731.2 528C712.3 527 693.7 521 675 518C656.3 515 637.7 515 619 518C600.3 521 581.7 527 562.8 527C544 527 525 521 506.2 522C487.3 523 468.7 531 450 532C431.3 533 412.7 527 394 525C375.3 523 356.7 525 337.8 525C319 525 300 523 281.2 525C262.3 527 243.7 533 225 534C206.3 535 187.7 531 169 530C150.3 529 131.7 531 112.8 531C94 531 75 529 56.2 528C37.3 527 18.7 527 9.3 527L0 527Z" fill="#06310b"></path><path d="M0 601L9.3 601C18.7 601 37.3 601 56.2 601C75 601 94 601 112.8 601C131.7 601 150.3 601 169 601C187.7 601 206.3 601 225 601C243.7 601 262.3 601 281.2 601C300 601 319 601 337.8 601C356.7 601 375.3 601 394 601C412.7 601 431.3 601 450 601C468.7 601 487.3 601 506.2 601C525 601 544 601 562.8 601C581.7 601 600.3 601 619 601C637.7 601 656.3 601 675 601C693.7 601 712.3 601 731.2 601C750 601 769 601 787.8 601C806.7 601 825.3 601 844 601C862.7 601 881.3 601 890.7 601L900 601L900 539L890.7 541C881.3 543 862.7 547 844 548C825.3 549 806.7 547 787.8 547C769 547 750 549 731.2 547C712.3 545 693.7 539 675 537C656.3 535 637.7 537 619 540C600.3 543 581.7 547 562.8 547C544 547 525 543 506.2 544C487.3 545 468.7 551 450 552C431.3 553 412.7 549 394 548C375.3 547 356.7 549 337.8 549C319 549 300 547 281.2 548C262.3 549 243.7 553 225 554C206.3 555 187.7 553 169 552C150.3 551 131.7 551 112.8 550C94 549 75 547 56.2 546C37.3 545 18.7 545 9.3 545L0 545Z" fill="#002000"></path></svg>