<svg id="visual" viewBox="0 0 900 600" width="900" height="600" xmlns="http://www.w3.org/2000/svg" xmlns:xlink="http://www.w3.org/1999/xlink" version="1.1"><rect x="0" y="0" width="900" height="600" fill="#1b3f05"></rect><defs><linearGradient id="grad1_0" x1="33.3%" y1="0%" x2="100%" y2="100%"><stop offset="20%" stop-color="#367211" stop-opacity="1"></stop><stop offset="80%" stop-color="#367211" stop-opacity="1"></stop></linearGradient></defs><defs><linearGradient id="grad1_1" x1="33.3%" y1="0%" x2="100%" y2="100%"><stop offset="20%" stop-color="#367211" stop-opacity="1"></stop><stop offset="80%" stop-color="#326a0f" stop-opacity="1"></stop></linearGradient></defs><defs><linearGradient id="grad1_2" x1="33.3%" y1="0%" x2="100%" y2="100%"><stop offset="20%" stop-color="#2e630d" stop-opacity="1"></stop><stop offset="80%" stop-color="#326a0f" stop-opacity="1"></stop></linearGradient></defs><defs><linearGradient id="grad1_3" x1="33.3%" y1="0%" x2="100%" y2="100%"><stop offset="20%" stop-color="#2e630d" stop-opacity="1"></stop><stop offset="80%" stop-color="#2a5c0c" stop-opacity="1"></stop></linearGradient></defs><defs><linearGradient id="grad1_4" x1="33.3%" y1="0%" x2="100%" y2="100%"><stop offset="20%" stop-color="#26540a" stop-opacity="1"></stop><stop offset="80%" stop-color="#2a5c0c" stop-opacity="1"></stop></linearGradient></defs><defs><linearGradient id="grad1_5" x1="33.3%" y1="0%" x2="100%" y2="100%"><stop offset="20%" stop-color="#26540a" stop-opacity="1"></stop><stop offset="80%" stop-color="#224d08" stop-opacity="1"></stop></linearGradient></defs><defs><linearGradient id="grad1_6" x1="33.3%" y1="0%" x2="100%" y2="100%"><stop offset="20%" stop-color="#1f4607" stop-opacity="1"></stop><stop offset="80%" stop-color="#224d08" stop-opacity="1"></stop></linearGradient></defs><defs><linearGradient id="grad1_7" x1="33.3%" y1="0%" x2="100%" y2="100%"><stop offset="20%" stop-color="#1f4607" stop-opacity="1"></stop><stop offset="80%" stop-color="#1b3f05" stop-opacity="1"></stop></linearGradient></defs><defs><linearGradient id="grad2_0" x1="0%" y1="0%" x2="66.7%" y2="100%"><stop offset="20%" stop-color="#367211" stop-opacity="1"></stop><stop offset="80%" stop-color="#367211" stop-opacity="1"></stop></linearGradient></defs><defs><linearGradient id="grad2_1" x1="0%" y1="0%" x2="66.7%" y2="100%"><stop offset="20%" stop-color="#326a0f" stop-opacity="1"></stop><stop offset="80%" stop-color="#367211" stop-opacity="1"></stop></linearGradient></defs><defs><linearGradient id="grad2_2" x1="0%" y1="0%" x2="66.7%" y2="100%"><stop offset="20%" stop-color="#326a0f" stop-opacity="1"></stop><stop offset="80%" stop-color="#2e630d" stop-opacity="1"></stop></linearGradient></defs><defs><linearGradient id="grad2_3" x1="0%" y1="0%" x2="66.7%" y2="100%"><stop offset="20%" stop-color="#2a5c0c" stop-opacity="1"></stop><stop offset="80%" stop-color="#2e630d" stop-opacity="1"></stop></linearGradient></defs><defs><linearGradient id="grad2_4" x1="0%" y1="0%" x2="66.7%" y2="100%"><stop offset="20%" stop-color="#2a5c0c" stop-opacity="1"></stop><stop offset="80%" stop-color="#26540a" stop-opacity="1"></stop></linearGradient></defs><defs><linearGradient id="grad2_5" x1="0%" y1="0%" x2="66.7%" y2="100%"><stop offset="20%" stop-color="#224d08" stop-opacity="1"></stop><stop offset="80%" stop-color="#26540a" stop-opacity="1"></stop></linearGradient></defs><defs><linearGradient id="grad2_6" x1="0%" y1="0%" x2="66.7%" y2="100%"><stop offset="20%" stop-color="#224d08" stop-opacity="1"></stop><stop offset="80%" stop-color="#1f4607" stop-opacity="1"></stop></linearGradient></defs><defs><linearGradient id="grad2_7" x1="0%" y1="0%" x2="66.7%" y2="100%"><stop offset="20%" stop-color="#1b3f05" stop-opacity="1"></stop><stop offset="80%" stop-color="#1f4607" stop-opacity="1"></stop></linearGradient></defs><g transform="translate(900, 0)"><path d="M0 459.7C-41.5 420.8 -82.9 381.8 -115.3 354.7C-147.6 327.7 -170.9 312.4 -222.8 306.6C-274.7 300.8 -355.3 304.5 -371.9 270.2C-388.6 235.9 -341.3 163.5 -345.2 112.2C-349.2 60.8 -404.5 30.4 -459.7 0L0 0Z" fill="#1d4206"></path><path d="M0 402.2C-36.3 368.2 -72.5 334.1 -100.9 310.4C-129.2 286.7 -149.5 273.3 -194.9 268.3C-240.3 263.2 -310.9 266.5 -325.4 236.4C-340 206.4 -298.6 143.1 -302.1 98.2C-305.6 53.2 -353.9 26.6 -402.2 0L0 0Z" fill="#204907"></path><path d="M0 344.8C-31.1 315.6 -62.2 286.4 -86.4 266.1C-110.7 245.7 -128.1 234.3 -167.1 230C-206 225.6 -266.5 228.4 -278.9 202.7C-291.4 176.9 -255.9 122.7 -258.9 84.1C-261.9 45.6 -303.3 22.8 -344.8 0L0 0Z" fill="#245109"></path><path d="M0 287.3C-25.9 263 -51.8 238.6 -72 221.7C-92.3 204.8 -106.8 195.2 -139.2 191.6C-171.7 188 -222 190.3 -232.4 168.9C-242.8 147.4 -213.3 102.2 -215.8 70.1C-218.3 38 -252.8 19 -287.3 0L0 0Z" fill="#28580b"></path><path d="M0 229.9C-20.7 210.4 -41.5 190.9 -57.6 177.4C-73.8 163.8 -85.4 156.2 -111.4 153.3C-137.3 150.4 -177.6 152.3 -186 135.1C-194.3 117.9 -170.6 81.8 -172.6 56.1C-174.6 30.4 -202.2 15.2 -229.9 0L0 0Z" fill="#2c5f0c"></path><path d="M0 172.4C-15.5 157.8 -31.1 143.2 -43.2 133C-55.4 122.9 -64.1 117.1 -83.5 115C-103 112.8 -133.2 114.2 -139.5 101.3C-145.7 88.5 -128 61.3 -129.5 42.1C-131 22.8 -151.7 11.4 -172.4 0L0 0Z" fill="#30670e"></path><path d="M0 114.9C-10.4 105.2 -20.7 95.5 -28.8 88.7C-36.9 81.9 -42.7 78.1 -55.7 76.7C-68.7 75.2 -88.8 76.1 -93 67.6C-97.1 59 -85.3 40.9 -86.3 28C-87.3 15.2 -101.1 7.6 -114.9 0L0 0Z" fill="#346e10"></path><path d="M0 57.5C-5.2 52.6 -10.4 47.7 -14.4 44.3C-18.5 41 -21.4 39 -27.8 38.3C-34.3 37.6 -44.4 38.1 -46.5 33.8C-48.6 29.5 -42.7 20.4 -43.2 14C-43.7 7.6 -50.6 3.8 -57.5 0L0 0Z" fill="#367211"></path></g><g transform="translate(0, 600)"><path d="M0 -459.7C44.4 -449.7 88.9 -439.8 140 -430.8C191.1 -421.9 248.8 -414 270.2 -371.9C291.6 -329.8 276.7 -253.6 286.4 -208.1C296.1 -162.5 330.3 -147.6 363.3 -118C396.3 -88.5 428 -44.2 459.7 0L0 0Z" fill="#1d4206"></path><path d="M0 -402.2C38.9 -393.5 77.8 -384.8 122.5 -377C167.2 -369.2 217.7 -362.2 236.4 -325.4C255.2 -288.6 242.1 -221.9 250.6 -182.1C259.1 -142.2 289 -129.2 317.9 -103.3C346.8 -77.4 374.5 -38.7 402.2 0L0 0Z" fill="#204907"></path><path d="M0 -344.8C33.3 -337.3 66.7 -329.8 105 -323.1C143.3 -316.4 186.6 -310.5 202.7 -278.9C218.7 -247.4 207.5 -190.2 214.8 -156.1C222.1 -121.9 247.7 -110.7 272.5 -88.5C297.2 -66.4 321 -33.2 344.8 0L0 0Z" fill="#245109"></path><path d="M0 -287.3C27.8 -281.1 55.6 -274.9 87.5 -269.3C119.4 -263.7 155.5 -258.7 168.9 -232.4C182.3 -206.2 172.9 -158.5 179 -130C185 -101.6 206.5 -92.3 227.1 -73.8C247.7 -55.3 267.5 -27.6 287.3 0L0 0Z" fill="#28580b"></path><path d="M0 -229.9C22.2 -224.9 44.4 -219.9 70 -215.4C95.5 -210.9 124.4 -207 135.1 -186C145.8 -164.9 138.4 -126.8 143.2 -104C148 -81.3 165.2 -73.8 181.7 -59C198.1 -44.2 214 -22.1 229.9 0L0 0Z" fill="#2c5f0c"></path><path d="M0 -172.4C16.7 -168.7 33.3 -164.9 52.5 -161.6C71.7 -158.2 93.3 -155.2 101.3 -139.5C109.4 -123.7 103.8 -95.1 107.4 -78C111 -60.9 123.9 -55.4 136.2 -44.3C148.6 -33.2 160.5 -16.6 172.4 0L0 0Z" fill="#30670e"></path><path d="M0 -114.9C11.1 -112.4 22.2 -109.9 35 -107.7C47.8 -105.5 62.2 -103.5 67.6 -93C72.9 -82.5 69.2 -63.4 71.6 -52C74 -40.6 82.6 -36.9 90.8 -29.5C99.1 -22.1 107 -11.1 114.9 0L0 0Z" fill="#346e10"></path><path d="M0 -57.5C5.6 -56.2 11.1 -55 17.5 -53.9C23.9 -52.7 31.1 -51.7 33.8 -46.5C36.5 -41.2 34.6 -31.7 35.8 -26C37 -20.3 41.3 -18.5 45.4 -14.8C49.5 -11.1 53.5 -5.5 57.5 0L0 0Z" fill="#367211"></path></g></svg>